<?xml version="1.0" encoding="utf-8"?>
<!-- Generator: Adobe Illustrator 16.0.2, SVG Export Plug-In . SVG Version: 6.00 Build 0)  -->
<!DOCTYPE svg PUBLIC "-//W3C//DTD SVG 1.1//EN" "http://www.w3.org/Graphics/SVG/1.1/DTD/svg11.dtd">
<svg version="1.1" id="Layer_1" xmlns="http://www.w3.org/2000/svg" xmlns:xlink="http://www.w3.org/1999/xlink" x="0px" y="0px"
	 width="166.492px" height="212.989px" viewBox="0 0 166.492 212.989" enable-background="new 0 0 166.492 212.989"
	 xml:space="preserve">
<g>
	<path fill-rule="evenodd" clip-rule="evenodd" fill="#020202" d="M112.839,100.591c6.436,13.889,12.91,27.76,19.283,41.678
		c3.275,7.156,2.627,10.345-2.824,16.094c-0.857,0.905-2.309,1.324-2.146,3.071c0.399,4.299-1.756,7.075-5.735,8.205
		c-4.03,1.146-6.073-1.987-8.116-4.563c-8.921-11.246-16.287-23.538-23.837-35.706c-1.819-2.932-3.322-6.114-6.192-8.585
		c-1.584,2.063-50.38,77.539-51.889,79.513c-4.976,6.508-15.703,6.368-20.677,0.113c-2.819-3.546-4.365-7.208-3.749-11.73
		c0.652-4.789-0.926-9.717,1.558-14.436c6.469-12.29,50.313-70.646,54.785-75.618c4.603-5.118,4.02-10.039,1.809-15.972
		C59.073,66.461,53.58,50.066,47.844,33.761c-0.842-2.393-1.554-4.846-0.961-7.325c0.461-1.927,19.076-9.52,20.22-9.331
		c2.834,0.466,3.982,2.848,5.292,4.92c7.308,11.563,18.916,40.276,21.541,39.498c1.723-0.512,42.229-48.527,42.045-50.968
		l-0.01,0.009c4.205-0.196,14.117,0.762,16.756,0.019c1.531-0.431,2.414,0.812,3.283,1.815c3.906,4.515,4.041,6.989,0.357,11.839
		c-4.323,5.692-8.812,11.26-13.161,16.934c-11.228,14.645-22.434,29.307-33.607,43.992c-0.996,1.309-2.196,2.701-1.976,4.027
		C107.755,89.984,112.371,99.578,112.839,100.591z"/>
</g>
</svg>
