<?xml version="1.0" encoding="utf-8"?>
<!-- Svg Vector Icons : http://www.onlinewebfonts.com/icon -->
<!DOCTYPE svg PUBLIC "-//W3C//DTD SVG 1.1//EN" "http://www.w3.org/Graphics/SVG/1.1/DTD/svg11.dtd">
<svg version="1.1" xmlns="http://www.w3.org/2000/svg" xmlns:xlink="http://www.w3.org/1999/xlink" x="0px" y="0px" viewBox="0 0 1000 1000" enable-background="new 0 0 1000 1000" xml:space="preserve">
<metadata> Svg Vector Icons : http://www.onlinewebfonts.com/icon </metadata>
<g><g transform="translate(0.000000,512.000000) scale(0.100000,-0.100000)"><path d="M4594.1,4992.6C3298.7,4814.4,2218,3779.6,1867.3,2378.9c-115-459.9-111.1-377.5-118.8-2918.4l-7.7-2332l-549.9-5.8c-801-7.6-751.2,55.6-751.2-954.3c0-781.8,3.8-808.6,136-902.5l65.2-46h4359.3h4359.3l65.2,46c132.2,93.9,136,120.7,136,902.5s-3.8,808.6-136,902.5c-65.2,46-69,46-615.1,51.7l-551.9,5.8l-1.9,693.7c-3.8,2184.5-19.2,3932-36.4,4085.3c-47.9,410.1-176.3,841.2-364.1,1228.3C7221.2,4438.8,5929.7,5174.6,4594.1,4992.6z M5389.3,4379.4c523.1-92,965.8-325.8,1366.2-726.2c498.2-500.1,795.2-1151.6,870-1906.6c11.5-120.7,19.2-1061.6,19.2-2408.6v-2211.3H5000.3H2354l7.7,2353.1c7.7,2556.2,1.9,2424,116.9,2845.5c235.7,866.1,835.5,1578.9,1598.1,1900.9c141.8,59.4,471.4,151.4,607.4,168.6C4833.6,4413.9,5239.8,4406.2,5389.3,4379.4z M8947.7-3831.5v-344.9H5000.3H1053v344.9v344.9h3947.3h3947.4V-3831.5z"/><path d="M4875.8,3509.4c-21.1-9.6-59.4-36.4-84.3-59.4c-93.9-90.1-97.7-122.6-97.7-862.3v-689.8h-705.2c-400.5,0-732-7.7-768.4-19.2c-254.9-72.8-293.2-436.9-57.5-555.7c69-36.4,115-38.3,802.9-38.3h728.2V-242.5c0-1504.2,0-1527.2,40.2-1607.7c107.3-226.1,425.4-226.1,532.7,0c40.3,80.5,40.3,103.5,40.3,1607.7v1527.2H6035c687.9,0,733.9,1.9,802.9,38.3c235.7,118.8,197.4,482.9-57.5,555.7c-36.4,11.5-367.9,19.2-768.4,19.2h-705.1v689.8c0,755-1.9,766.5-113.1,870c-49.8,47.9-78.6,57.5-168.6,63.2C4963.9,3522.8,4896.8,3519,4875.8,3509.4z"/></g></g>
</svg>