<?xml version="1.0" encoding="utf-8"?>
<!-- Generator: Adobe Illustrator 16.0.2, SVG Export Plug-In . SVG Version: 6.00 Build 0)  -->
<!DOCTYPE svg PUBLIC "-//W3C//DTD SVG 1.1//EN" "http://www.w3.org/Graphics/SVG/1.1/DTD/svg11.dtd">
<svg version="1.1" id="Layer_1" xmlns="http://www.w3.org/2000/svg" xmlns:xlink="http://www.w3.org/1999/xlink" x="0px" y="0px"
	 width="595.281px" height="841.891px" viewBox="0 0 595.281 841.891" enable-background="new 0 0 595.281 841.891"
	 xml:space="preserve">
<g>
	<g transform="translate(0.000000,512.000000) scale(0.100000,-0.100000)">
		<path fill="#666666" d="M2734.775,3811.115c-771.123-106.084-1414.443-722.08-1623.208-1555.889
			c-68.457-273.77-66.138-224.717-70.718-1737.265l-4.585-1388.193l-327.344-3.457c-476.821-4.521-447.178,33.096-447.178-568.076
			c0-465.391,2.266-481.338,80.962-537.236l38.809-27.383h2595.005h2595l38.828,27.383c78.691,55.898,80.957,71.846,80.957,537.236
			s-2.266,481.348-80.957,537.246c-38.828,27.383-41.074,27.383-366.172,30.771l-328.535,3.457l-1.133,412.939
			c-2.246,1300.39-11.426,2340.644-21.66,2431.904c-28.516,244.121-104.941,500.752-216.738,731.182
			C4298.647,3481.447,3529.839,3919.455,2734.775,3811.115z M3208.139,3446.086c311.387-54.766,574.922-193.945,813.281-432.295
			c296.563-297.695,473.359-685.527,517.891-1134.961c6.836-71.846,11.426-631.943,11.426-1433.789V-871.306H2976.582H1401.289
			l4.585,1400.752c4.585,1521.66,1.128,1442.969,69.59,1693.877c140.308,515.566,497.353,939.883,951.313,1131.563
			c84.414,35.361,280.615,90.127,361.577,100.371C2877.348,3466.623,3119.155,3462.043,3208.139,3446.086z M5326.381-1441.707
			v-205.313h-2349.8H626.831v205.313v205.312h2349.751h2349.8V-1441.707L5326.381-1441.707z"/>
		<path fill="#666666" d="M2902.466,2928.195c-12.559-5.723-35.356-21.67-50.181-35.361
			c-55.898-53.633-58.159-72.988-58.159-513.311v-410.625h-419.79c-238.413,0-435.747-4.58-457.412-11.426
			c-151.738-43.34-174.541-260.078-34.229-330.801c41.074-21.67,68.457-22.803,477.949-22.803h433.481V694.758
			c0-895.42,0-909.111,23.931-957.031c63.872-134.59,253.228-134.59,317.114,0c23.984,47.92,23.984,61.611,23.984,957.031v909.111
			h433.359c409.492,0,436.875,1.133,477.949,22.803c140.313,70.723,117.52,287.461-34.219,330.801
			c-21.68,6.846-219.004,11.426-457.422,11.426h-419.727v410.625c0,449.434-1.133,456.279-67.324,517.891
			c-29.648,28.516-46.797,34.229-100.371,37.627C2954.912,2936.164,2914.97,2933.908,2902.466,2928.195z"/>
	</g>
</g>
</svg>
